# AST/ASF file generated using VICON BodyLanguage
# -----------------------------------------------
:version 1.10
:name VICON
:units
  mass 1.0
  length 0.45
  angle deg
:documentation
   .ast/.asf automatically generated from VICON data using
   VICON BodyBuilder and BodyLanguage model FoxedUp or BRILLIANT.MOD
:root
   order TX TY TZ RX RY RZ
   axis XYZ
   position 0 0 0  
   orientation 0 -0 0 
:bonedata
  begin
     id 1 
     name lhipjoint
     direction 0.515797 -0.759363 0.396637 
     length 2.47888 
     axis 0 -0 0  XYZ
  end
  begin
     id 2 
     name lfemur
     direction 0.34202 -0.939693 0  
     length 6.81885  
     axis 0 -0 20  XYZ
    dof rx ry rz
    limits (-160.0 20.0)
           (-70.0 70.0)
           (-60.0 70.0)
  end
  begin
     id 3 
     name ltibia
     direction 0.342037 -0.939687 0   
     length 7.89258   
     axis 0 -0 20   XYZ
    dof rx
    limits (-10.0 170.0)
  end
  begin
     id 4 
     name lfoot
     direction 0.173497 -0.476678 0.861787   
     length 2.51543   
     axis -90 -1.13533e-015 20   XYZ
    dof rx rz
    limits (-45.0 90.0)
           (-70.0 20.0)
  end
  begin
     id 5 
     name ltoes
     direction 1.53564e-011 -4.21897e-011 1   
     length 1.21388   
     axis -90 -1.13533e-015 20   XYZ
    dof rx
    limits (-90.0 20.0)
  end
  begin
     id 6 
     name rhipjoint
     direction -0.489454 -0.772941 0.403729   
     length 2.43534  
     axis 0 -0 0  XYZ 
  end
  begin
     id 7 
     name rfemur
     direction -0.34202 -0.939693 0   
     length 7.10357   
     axis 0 -0 -20   XYZ
    dof rx ry rz
    limits (-160.0 20.0)
           (-70.0 70.0)
           (-70.0 60.0)
  end
  begin
     id 8 
     name rtibia
     direction -0.34202 -0.939693 0   
     length 9.16127   
     axis 0 -0 -20   XYZ
    dof rx
    limits (-10.0 170.0)
 end
 begin
     id 9 
     name rfoot
     direction -0.270974 -0.748671 0.605033   
     length 1.74894  
     axis -90 1.13533e-015 -20   XYZ
    dof rx rz
    limits (-45.0 90.0)
           (-20.0 70.0)
  end
  begin
     id 10 
     name rtoes
     direction -1.53557e-011 -4.21759e-011 1   
     length 0.787585   
     axis -90 1.13533e-015 -20   XYZ
    dof rx
    limits (-90.0 20.0)
  end
  begin
     id 11 
     name lowerback
     direction -0.0140249 0.999561 0.0260968   
     length 2.16963   
     axis 0 -0 0   XYZ
    dof rx ry rz
    limits (-20.0 45.0)
           (-30.0 30.0)
           (-30.0 30.0)
  end
  begin
     id 12 
     name upperback
     direction 0.00860018 0.999959 -0.002711   
     length 2.1726   
     axis 0 -0 0   XYZ
    dof rx ry rz
    limits (-20.0 45.0)
           (-30.0 30.0)
           (-30.0 30.0)
  end
  begin
     id 13 
     name thorax
     direction 0.015211 0.999782 -0.0143191   
     length 2.17061   
     axis 0 -0 0   XYZ
    dof rx ry rz
    limits (-20.0 45.0)
           (-30.0 30.0)
           (-30.0 30.0)
  end
  begin
     id 14 
     name lowerneck
     direction -0.0140143 0.999447 0.030145   
     length 2.26749   
     axis 0 -0 0   XYZ
    dof rx ry rz
    limits (-20.0 45.0)
           (-30.0 30.0)
           (-30.0 30.0)
  end
  begin
     id 15 
     name upperneck
     direction 0.118062 0.961438 -0.248392   
     length 2.22728   
     axis 0 -0 0   XYZ
    dof rx ry rz
    limits (-20.0 45.0)
           (-30.0 30.0)
           (-30.0 30.0)
  end
  begin
     id 16
     name head
     direction 0.0431885 0.9954 -0.085514  
     length 2.28786  
     axis 0 -0 0   XYZ
    dof rx ry rz
    limits (-20.0 45.0)
           (-30.0 30.0)
           (-30.0 30.0)
  end
  begin
     id 17 
     name lclavicle
     direction 0.912126 0.409548 0.0172323  
     length 4.31571  
     axis 0 -0 0   XYZ
    dof ry rz
    limits (-20.0 10.0)
           (0.0 20.0)
  end
  begin
     id 18 
     name lhumerus
     direction 1 -4.48977e-011 1.93091e-027   
     length 5.13658   
     axis 180 -30 -90   XYZ
    dof rx ry rz
    limits (-60.0 90.0)
           (-90.0 90.0)
           (-90.0 90.0)
  end
  begin
     id 19
     name lradius
     direction 1 -4.48916e-011 6.84018e-027   
     length 3.22473   
     axis 180 -30 -90   XYZ
    dof rx
    limits (-10.0 170.0)
  end
  begin
     id 20
     name lwrist
     direction 1 -4.48987e-011 7.01981e-027   
     length 1.61236   
     axis -4.37994e-015 90 90   XYZ
    dof ry
    limits (-180.0 0.0)
 end
  begin
     id 21 
     name lhand
     direction 1 -4.49037e-011 1.40335e-026   
     length 0.936406   
     axis -8.96029e-015 90 90   XYZ
    dof rx rz
    limits (-90.0 90.0)
           (-45.0 45.0)
  end
  begin
     id 22 
     name lfingers
     direction 1 -4.48886e-011 2.8104e-026   
     length 0.754955   
     axis -1.79203e-014 90 90   XYZ
    dof rx
    limits (0.0 90.0)
  end
  begin
     id 23
     name lthumb
     direction 0.707107 -6.34937e-011 0.707107   
     length 1.08397   
     axis -90 45 -4.48555e-014   XYZ
    dof rx rz
    limits (-45.0 45.0)
           (-45.0 45.0)
  end
  begin
     id 24 
     name rclavicle
     direction -0.947962 0.317997 0.0156638   
     length 4.86918  
     axis 0 -0 0   XYZ 
    dof ry rz
    limits (-10.0 20.0)
           (-20.0 0.0)
  end
  begin
     id 25 
     name rhumerus
     direction -1 -4.48951e-011 2.80534e-018  
     length 5.60911   
     axis 180 30 90   XYZ
    dof rx ry rz
    limits (-90.0 60.0)
           (-90.0 90.0)
           (-90.0 90.0)
  end
  begin
     id 26 
     name rradius
     direction -1 -4.4898e-011 2.11315e-027   
     length 3.38704   
     axis 180 30 90   XYZ
    dof rx
    limits (-10.0 170.0)
  end
  begin
     id 27 
     name rwrist
     direction -1 -4.48933e-011 7.02314e-027   
     length 1.69352   
     axis -4.37994e-015 -90 -90   XYZ
    dof ry
    limits (-180.0 0.0)
  end
  begin
     id 28
     name rhand
     direction -1 -4.48937e-011 1.40458e-026   
     length 0.755878   
     axis -8.96029e-015 -90 -90   XYZ
    dof rx rz
    limits (-90.0 90.0)
           (-45.0 45.0)
  end
  begin
     id 29
     name rfingers
     direction -1 -4.4901e-011 2.80737e-026   
     length 0.609409   
     axis -1.79203e-014 -90 -90   XYZ
    dof rx
    limits (0.0 90.0)
  end
  begin
     id 30
     name rthumb
     direction -0.707107 -6.34968e-011 0.707107   
     length 0.874992   
     axis -90 -45 4.48555e-014   XYZ
    dof rx rz
    limits (-45.0 45.0)
           (-45.0 45.0)
  end
:hierarchy
  begin
    root lhipjoint rhipjoint lowerback
    lhipjoint lfemur
    lfemur ltibia
    ltibia lfoot
    lfoot ltoes
    rhipjoint rfemur
    rfemur rtibia
    rtibia rfoot
    rfoot rtoes
    lowerback upperback
    upperback thorax
    thorax lowerneck lclavicle rclavicle
    lowerneck upperneck
    upperneck head
    lclavicle lhumerus
    lhumerus lradius
    lradius lwrist
    lwrist lhand lthumb
    lhand lfingers
    rclavicle rhumerus
    rhumerus rradius
    rradius rwrist
    rwrist rhand rthumb
    rhand rfingers
  end

#!OML:ASF C:\ViconDB\ViconDB\414\Spring2016\041811\Spring2016.ASF
:FULLY-SPECIFIED
:DEGREES
18
root 8.54891 18.2236 -9.78694 -174.653 -7.69667 179.281
lowerback -1.62379 9.59748 -0.462765
upperback -0.247886 12.8056 -0.661934
thorax 0.689183 6.39901 -0.142178
lowerneck -18.2012 -2.15652 -11.4471
upperneck 25.0746 -4.50019 14.5604
head 11.7973 -1.65557 6.73897
rclavicle -3.48494e-014 -3.37934e-015
rhumerus -2.89427 -8.66921 -31.3932
rradius 42.0226
rwrist 32.8142
rhand -35.0382 -10.5963
rfingers 7.12502
rthumb -8.18163 -40.4179
lclavicle -3.48494e-014 -3.37934e-015
lhumerus -42.5881 8.97591 11.156
lradius 30.2074
lwrist -14.7613
lhand -29.273 19.6489
lfingers 7.12502
lthumb -2.61535 49.6126
rfemur 138.711 49.9768 156.476
rtibia -9.54166e-015
rfoot -77.6465 -48.2518
rtoes -44.3079
lfemur -34.0963 -13.2029 -18.1002
ltibia 41.9932
lfoot -12.5349 -26.4657
ltoes -5.14372
19
root 8.5546 18.2283 -9.79154 -174.604 -7.41934 179.31
lowerback -1.48731 9.43601 -0.53283
upperback -0.240948 12.5904 -0.634704
thorax 0.60001 6.29185 -0.109521
lowerneck -18.2032 -2.17068 -11.4871
upperneck 24.803 -4.4881 14.6466
head 11.6954 -1.63775 6.76698
rclavicle -8.0806e-014 -6.75868e-015
rhumerus -2.99837 -8.31497 -30.895
rradius 42.148
rwrist 32.0271
rhand -34.9281 -11.1829
rfingers 7.12502
rthumb -8.07539 -41.0086
lclavicle -8.0806e-014 -6.75868e-015
lhumerus -42.4129 8.65999 11.1884
lradius 30.2161
lwrist -14.9094
lhand -29.2732 19.9544
lfingers 7.12502
lthumb -2.6156 49.9181
rfemur 139.045 49.8203 156.768
rtibia -1.03368e-014
rfoot -77.5472 -48.2356
rtoes -44.3383
lfemur -34.0791 -12.9385 -18.0577
ltibia 41.9472
lfoot -12.5882 -26.4359
ltoes -5.1106
20
root 8.55886 18.2352 -9.79026 -174.513 -6.93248 179.429
lowerback -1.34004 9.31501 -0.446917
upperback -0.229484 12.4273 -0.636637
thorax 0.549123 6.21105 -0.182413
lowerneck -18.3702 -2.14492 -11.3904
upperneck 24.5954 -4.39593 14.5691
head 11.6315 -1.58099 6.72318
rclavicle -7.95139e-015 8.94531e-015
rhumerus -3.10044 -9.52011 -30.8807
rradius 41.9998
rwrist 33.0356
rhand -35.0921 -10.6353
rfingers 7.12502
rthumb -8.23366 -40.4549
lclavicle -7.95139e-015 8.94531e-015
lhumerus -42.2739 7.9378 11.453
lradius 30.4154
lwrist -14.3158
lhand -29.4428 20.076
lfingers 7.12502
lthumb -2.77932 50.0376
rfemur 139.712 49.5719 157.398
rtibia 1.03368e-014
rfoot -77.1699 -48.475
rtoes -44.0858
lfemur -34.1207 -12.5758 -17.8885
ltibia 41.8839
lfoot -12.6534 -26.2792
ltoes -5.23109
21
root 8.55361 18.2415 -9.79487 -174.522 -6.21192 179.457
lowerback -1.17826 9.25206 -0.400466
upperback -0.14643 12.3431 -0.630866
thorax 0.553749 6.16955 -0.221154
lowerneck -18.4929 -2.12825 -11.4043
upperneck 24.3632 -4.29288 14.5267
head 11.551 -1.52697 6.71336
rclavicle 1.03095e-013 -5.1684e-015
rhumerus -3.21207 -10.2323 -30.6161
rradius 41.887
rwrist 33.4882
rhand -35.1891 -10.2233
rfingers 7.12502
rthumb -8.32726 -40.0392
lclavicle 1.03095e-013 -5.1684e-015
lhumerus -42.1723 7.62519 11.542
lradius 30.4532
lwrist -14.3933
lhand -29.4652 20.1617
lfingers 7.12502
lthumb -2.80103 50.1231
rfemur 140.467 49.0561 157.948
rtibia 1.35174e-014
rfoot -76.9109 -48.6812
rtoes -44.0024
lfemur -33.9846 -12.3401 -17.845
ltibia 41.8174
lfoot -12.8378 -25.7608
ltoes -5.42246
22
root 8.56283 18.2468 -9.80117 -174.586 -5.71205 179.621
lowerback -0.954506 9.08576 -0.37133
upperback -0.084949 12.1203 -0.575543
thorax 0.487104 6.05886 -0.217914
lowerneck -18.7162 -1.96977 -11.0032
upperneck 24.2031 -4.00578 14.1268
head 11.4718 -1.38538 6.52003
rclavicle -1.61711e-013 7.7526e-015
rhumerus -3.34203 -10.1181 -30.1734
rradius 41.9172
rwrist 32.9932
rhand -35.3237 -9.90875
rfingers 7.12502
rthumb -8.45714 -39.7194
lclavicle -1.61711e-013 7.7526e-015
lhumerus -41.9031 7.33333 11.5435
lradius 30.433
lwrist -14.2115
lhand -29.471 20.1842
lfingers 7.12502
lthumb -2.80661 50.1454
rfemur 140.903 48.6772 158.473
rtibia -2.22639e-014
rfoot -76.5727 -48.6189
rtoes -44.2701
lfemur -33.7989 -11.9547 -17.6507
ltibia 41.7404
lfoot -12.9382 -25.6167
ltoes -5.46839
23
root 8.57175 18.2558 -9.80267 -174.527 -5.14344 179.801
lowerback -0.695904 8.89826 -0.403464
upperback -0.116231 11.8685 -0.512188
thorax 0.291868 5.93356 -0.190921
lowerneck -18.8634 -1.93224 -10.9626
upperneck 23.9569 -3.91147 14.1481
head 11.394 -1.32408 6.52429
rclavicle 5.37091e-014 -9.14409e-015
rhumerus -3.45559 -10.2754 -29.8651
rradius 41.9289
rwrist 33.0121
rhand -35.1207 -10.0717
rfingers 7.12502
rthumb -8.26128 -39.8902
lclavicle 5.37091e-014 -9.14409e-015
lhumerus -41.7742 7.07199 11.4084
lradius 30.2421
lwrist -14.7234
lhand -29.6644 19.9052
lfingers 7.12502
lthumb -2.99334 49.864
rfemur 141.573 48.3377 159.18
rtibia 1.82882e-014
rfoot -76.187 -48.6062
rtoes -44.4271
lfemur -33.772 -11.6108 -17.3976
ltibia 41.6822
lfoot -13.0156 -25.3591
ltoes -5.54939
24
root 8.57684 18.2633 -9.81014 -174.552 -4.29421 179.722
lowerback -0.342407 8.79989 -0.619769
upperback -0.132157 11.735 -0.536451
thorax 0.042676 5.86723 -0.168614
lowerneck -19.0042 -2.18735 -11.6776
upperneck 23.7108 -4.25833 14.9871
head 11.422 -1.4512 6.92306
rclavicle -5.36719e-014 6.16232e-015
rhumerus -3.69391 -10.7074 -29.6286
rradius 41.8989
rwrist 33.3271
rhand -34.8518 -9.9444
rfingers 7.12502
rthumb -8.00171 -39.7729
lclavicle -5.36719e-014 6.16232e-015
lhumerus -41.6062 6.91827 11.2511
lradius 30.2744
lwrist -14.8937
lhand -29.6434 19.7558
lfingers 7.12502
lthumb -2.9731 49.7148
rfemur 142.322 47.699 159.631
rtibia -2.54444e-014
rfoot -75.5677 -48.7944
rtoes -44.2728
lfemur -33.5342 -11.2584 -17.4557
ltibia 41.6194
lfoot -13.3863 -24.8859
ltoes -5.67633
25
root 8.56809 18.2662 -9.83182 -174.392 -3.54292 179.748
lowerback -0.575313 8.63329 -0.619307
upperback -0.0136082 11.5163 -0.538934
thorax 0.293948 5.75713 -0.120513
lowerneck -19.1421 -2.28355 -11.7537
upperneck 23.311 -4.28174 14.9862
head 11.3066 -1.45169 6.91286
rclavicle 1.93567e-014 2.5842e-015
rhumerus -3.76624 -10.6939 -29.178
rradius 41.8685
rwrist 33.1422
rhand -34.9609 -10.2273
rfingers 7.12502
rthumb -8.10701 -40.0518
lclavicle 1.93567e-014 2.5842e-015
lhumerus -41.5018 6.57856 11.3489
lradius 30.5582
lwrist -14.454
lhand -29.5437 19.6781
lfingers 7.12502
lthumb -2.87679 49.6385
rfemur 143.091 47.1788 160.161
rtibia -1.19271e-014
rfoot -74.9502 -49.1404
rtoes -43.8258
lfemur -33.4692 -11.025 -17.4235
ltibia 41.5687
lfoot -13.6557 -24.3457
ltoes -5.77095
26
root 8.56536 18.2732 -9.84149 -174.265 -2.80938 179.818
lowerback -0.636904 8.4282 -0.646045
upperback 0.0749662 11.2445 -0.524708
thorax 0.411469 5.6207 -0.0756364
lowerneck -19.315 -2.39832 -11.7348
upperneck 23.0375 -4.35423 14.8868
head 11.2493 -1.47921 6.8467
rclavicle 2.82771e-014 -1.59028e-015
rhumerus -3.73557 -9.93437 -28.5396
rradius 41.7312
rwrist 32.0028
rhand -35.0487 -10.5284
rfingers 7.12502
rthumb -8.19181 -40.3496
lclavicle 2.82771e-014 -1.59028e-015
lhumerus -41.4928 6.13977 11.4061
lradius 30.9914
lwrist -13.8909
lhand -29.001 20.4909
lfingers 7.12502
lthumb -2.35264 50.4576
rfemur 143.89 46.7045 160.788
rtibia -7.15625e-015
rfoot -74.3218 -49.1904
rtoes -43.8674
lfemur -33.4226 -10.7449 -17.3112
ltibia 41.4904
lfoot -13.9766 -23.9056
ltoes -6.02694
27
root 8.56851 18.2808 -9.84366 -174.159 -1.93773 179.81
lowerback -0.466683 8.28016 -0.765646
upperback 0.0890369 11.0458 -0.562669
thorax 0.317474 5.52133 -0.0793726
lowerneck -19.2584 -2.49353 -11.6401
upperneck 22.6574 -4.40343 14.6795
head 11.0983 -1.50879 6.71881
rclavicle -2.4202e-014 8.74653e-015
rhumerus -3.80658 -10.0775 -28.2411
rradius 41.5141
rwrist 31.6271
rhand -34.8515 -10.9968
rfingers 7.12502
rthumb -8.00147 -40.8254
lclavicle -2.4202e-014 8.74653e-015
lhumerus -41.0797 5.91681 11.3721
lradius 30.8326
lwrist -14.4333
lhand -28.9611 20.6348
lfingers 7.12502
lthumb -2.31412 50.602
rfemur 144.815 46.1352 161.419
rtibia -1.51076e-014
rfoot -73.6862 -49.2451
rtoes -44.0267
lfemur -33.3669 -10.2333 -17.2971
ltibia 41.3927
lfoot -14.12 -23.5183
ltoes -6.13367
28
root 8.57155 18.2878 -9.84933 -174.115 -1.01815 179.809
lowerback -0.328878 8.11344 -0.930817
upperback 0.151716 10.8226 -0.556486
thorax 0.275025 5.40925 -0.00521623
lowerneck -19.3312 -2.58308 -11.6858
upperneck 22.2953 -4.44467 14.6692
head 10.9876 -1.52167 6.69894
rclavicle -5.1038e-014 8.34896e-015
rhumerus -3.96013 -9.83624 -27.8182
rradius 41.5678
rwrist 30.7883
rhand -34.5604 -11.5135
rfingers 7.12502
rthumb -7.7205 -41.3525
lclavicle -5.1038e-014 8.34896e-015
lhumerus -40.7758 5.77151 11.397
lradius 30.7269
lwrist -14.0617
lhand -29.3165 20.3907
lfingers 7.12502
lthumb -2.65736 50.3539
rfemur 145.66 45.4733 161.997
rtibia -3.97569e-015
rfoot -72.9078 -49.4371
rtoes -43.8032
lfemur -33.2085 -9.85465 -17.2618
ltibia 41.2631
lfoot -14.295 -22.9634
ltoes -6.46511
